<?xml version="1.0" encoding="utf-8"?>
<!-- Generator: Adobe Illustrator 16.0.4, SVG Export Plug-In . SVG Version: 6.00 Build 0)  -->
<!DOCTYPE svg PUBLIC "-//W3C//DTD SVG 1.1//EN" "http://www.w3.org/Graphics/SVG/1.1/DTD/svg11.dtd">
<svg version="1.1" xmlns="http://www.w3.org/2000/svg" xmlns:xlink="http://www.w3.org/1999/xlink" viewBox="0 0 256 256" xml:space="preserve">
<g class="ft-logo">
	<path d="M65.471,133.603c0,12.081,3.225,13.439,17.001,13.952v4.421H27.718v-4.421
		c11.393-0.513,14.621-1.871,14.621-13.952V54.715c0-12.092-3.229-13.449-14.281-13.954v-4.422h96.58l0.688,25.505h-4.762
		c-4.083-12.924-8.507-17-31.123-17H71.922c-5.262,0-6.451,1.183-6.451,5.95v36.565h8.628c18.029,0,21.942-3.24,24.15-15.315h4.42
		v40.814h-4.42c-2.378-13.604-9.184-17.002-24.15-17.002h-8.628V133.603z"/>
	<path d="M234.007,36.339H132.659l-2.354,25.514h5.81c3.713-12.497,9.17-17.008,21.369-17.008h14.284v88.758
		c0,12.081-3.23,13.439-16.323,13.952v4.421h55.779v-4.421c-13.096-0.513-16.327-1.871-16.327-13.952V44.844h14.278
		c12.206,0,17.669,4.512,21.373,17.008h5.81L234.007,36.339z"/>
</g>
</svg>
